<?xml version="1.0" standalone="no"?><!DOCTYPE svg PUBLIC "-//W3C//DTD SVG 1.1//EN" "http://www.w3.org/Graphics/SVG/1.1/DTD/svg11.dtd"><svg t="1619943588118" class="icon" viewBox="0 0 1024 1024" version="1.1" xmlns="http://www.w3.org/2000/svg" p-id="1480" xmlns:xlink="http://www.w3.org/1999/xlink" width="200" height="200"><defs><style type="text/css"></style></defs><path d="M847.962746 961.214704H174.700628c-61.990545 0-112.276582-50.249912-112.276582-112.168207V175.784379c0-61.990545 50.249912-112.276582 112.276582-112.276582h673.262118c61.918295 0 112.168207 50.249912 112.168207 112.276582v673.262118c0 61.918295-50.249912 112.168207-112.168207 112.168207z m56.029916-785.430325c0-31.031398-25.070768-56.138291-56.029916-56.138291H174.700628c-31.031398 0-56.138291 25.106893-56.138291 56.138291v673.262118c0 30.959148 25.070768 56.066041 56.138291 56.066041h673.262118c30.959148 0 56.029916-25.106893 56.029916-56.066041V175.784379z m-368.005644 548.016651c-6.75538 6.68313-15.931137 8.814506-24.637268 7.297255-8.706131 1.517251-17.990263-0.614125-24.637269-7.297255L328.01524 565.103789a28.061921 28.061921 0 0 1 0-39.665279c10.945883-10.945883 28.755521-10.945883 39.665279 0l115.56396 115.63621v-296.947718c0-15.569886 12.643759-28.105271 28.105271-28.105271s28.033021 12.535384 28.03302 28.105271v296.947718l115.63621-115.63621c10.945883-10.945883 28.647146-10.945883 39.665279 0a28.061921 28.061921 0 0 1 0 39.665279l-158.697241 158.697241z" fill="#231815" p-id="1481"></path></svg>