<?xml version="1.0" standalone="no"?><!DOCTYPE svg PUBLIC "-//W3C//DTD SVG 1.1//EN" "http://www.w3.org/Graphics/SVG/1.1/DTD/svg11.dtd"><svg t="1619944534385" class="icon" viewBox="0 0 1024 1024" version="1.1" xmlns="http://www.w3.org/2000/svg" p-id="77319" xmlns:xlink="http://www.w3.org/1999/xlink" width="200" height="200"><defs><style type="text/css"></style></defs><path d="M928 96v832H96V96h832m64-64H32v960h960V32z" p-id="77320"></path><path d="M64 448h896v64H64z" p-id="77321"></path><path d="M37.92 764.544l192-303.968 36.128 22.816-192 303.968zM42.56 909.6l267.2-432.96 36.352 22.432-267.2 432.976zM110.48 951.92l295.408-475.168 36.288 22.56L146.752 974.48zM197.92 956.672l303.76-480.144 36.112 22.848-303.776 480.128zM309.76 940.736l288-463.968 36.304 22.528-288 463.968zM390.016 956.64L693.76 476.528l36.112 22.848-303.776 480.128zM485.76 956.88l303.968-496.032 36.416 22.32L522.176 979.2zM581.84 956.864L887.664 458.4l36.4 22.336L618.256 979.2zM677.696 956.752l277.872-456.304 36.48 22.224-277.856 456.288zM773.616 956.96l176.096-288.048 36.448 22.288L810.08 979.232z" p-id="77322"></path></svg>