<?xml version="1.0" standalone="no"?><!DOCTYPE svg PUBLIC "-//W3C//DTD SVG 1.1//EN" "http://www.w3.org/Graphics/SVG/1.1/DTD/svg11.dtd"><svg t="1619944403095" class="icon" viewBox="0 0 1024 1024" version="1.1" xmlns="http://www.w3.org/2000/svg" p-id="74109" xmlns:xlink="http://www.w3.org/1999/xlink" width="200" height="200"><defs><style type="text/css"></style></defs><path d="M936.59425 680.456409L661.351105 405.213263a16.580806 16.580806 0 0 0-23.456853 0l-37.527426 37.527426-0.006635 0.004424-0.004423 0.006635-25.799 25.798999-39.097703-39.097704 50.82613-50.82613 275.243145-275.240933a16.587441 16.587441 0 0 0 0-23.456853L786.46243 4.861005a16.587441 16.587441 0 0 0-23.459065 0L487.76022 280.10415a16.580806 16.580806 0 0 0 0 23.456853l37.527426 37.527426 0.004423 0.006635 0.006635 0.004423 25.799 25.799L512 405.996191l-50.82613-50.826131L185.930725 79.926915a16.583017 16.583017 0 0 0-23.456853 0L87.407961 154.992825a16.580806 16.580806 0 0 0 0 23.456853l275.243146 275.243145a16.580806 16.580806 0 0 0 23.456853 0l63.337483-63.337483 39.097704 39.097703-50.82613 50.826131L162.473872 755.522319a16.587441 16.587441 0 0 0 0 23.456853l75.06591 75.06591a16.580806 16.580806 0 0 0 23.456853 0l98.106971-98.106971-22.665079 124.653511a16.585229 16.585229 0 0 0 16.31983 19.553275h1.105829v90.67801h-36.492369a16.587441 16.587441 0 0 0 0 33.174881h389.251943a16.587441 16.587441 0 0 0 0-33.174881H670.133602v-90.67801h1.105829a16.587441 16.587441 0 0 0 16.31983-19.553275l-56.02574-308.148204 206.535754 206.535754a16.529938 16.529938 0 0 0 11.728427 4.859014 16.529938 16.529938 0 0 0 11.728426-4.859014l75.065911-75.06591a16.580806 16.580806 0 0 0 0.002211-23.456853zM774.731792 40.046284l51.606845 51.609057-251.781869 251.786293-14.074996-14.074996 113.380687-113.380687a16.587441 16.587441 0 0 0 0-23.456853 16.587441 16.587441 0 0 0-23.456853 0l-113.380687 113.382898-14.074996-14.074996L774.731792 40.046284zM374.379533 418.507544L122.593241 166.721252l51.609057-51.606846 251.784081 251.784081-14.074997 14.074996-113.380686-113.380687a16.587441 16.587441 0 0 0-23.456853 0 16.587441 16.587441 0 0 0 0 23.456853l113.380687 113.380687-14.074997 14.077208z m-125.111325 400.35447l-51.606845-51.609057 251.78408-251.784081 14.074997 14.074997-113.382899 113.380686a16.587441 16.587441 0 0 0 0 23.456853 16.529938 16.529938 0 0 0 11.728427 4.859015 16.529938 16.529938 0 0 0 11.728426-4.859015l113.382899-113.380687 14.074996 14.074997-251.784081 251.786292zM636.95872 990.825118h-108.371279v-54.185639a16.587441 16.587441 0 0 0-33.174882 0V990.825118h-108.371279v-90.678009h249.91744v90.678009z m14.404534-123.852891H372.636746l27.681121-152.243954 135.924125-135.924125a16.580806 16.580806 0 0 0 0-23.456853l-63.337484-63.337483 39.097704-39.097704 50.82613 50.82613 27.495342 27.495342L651.363254 866.972227z m198.434448-123.178335L598.013621 492.009812l14.074997-14.074997 113.380686 113.380687c3.237868 3.237868 7.484253 4.859014 11.728427 4.859014s8.490558-1.618934 11.728426-4.859014a16.587441 16.587441 0 0 0 0-23.456853l-113.382898-113.380687 14.074996-14.074996L901.406759 692.187047l-51.609057 51.606845z" p-id="74110"></path><path d="M441.226919 970.92019a16.587441 16.587441 0 0 0 16.587441-16.587441v-17.69327a16.587441 16.587441 0 0 0-33.174881 0v17.69327a16.587441 16.587441 0 0 0 16.58744 16.587441zM582.773081 970.92019a16.587441 16.587441 0 0 0 16.58744-16.587441v-17.69327a16.587441 16.587441 0 0 0-33.174881 0v17.69327a16.587441 16.587441 0 0 0 16.587441 16.587441zM512 672.346256a16.587441 16.587441 0 0 0-16.587441 16.587441v17.69327a16.587441 16.587441 0 0 0 33.174882 0v-17.69327a16.587441 16.587441 0 0 0-16.587441-16.587441z" p-id="74111"></path></svg>