<?xml version="1.0" standalone="no"?><!DOCTYPE svg PUBLIC "-//W3C//DTD SVG 1.1//EN" "http://www.w3.org/Graphics/SVG/1.1/DTD/svg11.dtd"><svg t="1619943699832" class="icon" viewBox="0 0 1024 1024" version="1.1" xmlns="http://www.w3.org/2000/svg" p-id="2170" xmlns:xlink="http://www.w3.org/1999/xlink" width="200" height="200"><defs><style type="text/css"></style></defs><path d="M904.064912 485.33973l-349.618006 418.111057c-39.159529 41.47153-46.529034 41.47153-85.652438 0L120.043463 485.33973C90.312566 440.508573 63.182671 392.823538 63.182671 326.534114c0-123.40309 92.696818-236.655048 224.37254-236.655048 93.491568 0 167.150497 51.333663 224.444789 112.168207 60.148169-57.366542 130.953221-112.168207 224.444789-112.168207 131.675721 0 224.372539 113.251958 224.37254 236.655048 0 66.289424-21.783391 113.974458-56.752417 158.805616z m-55.41579-11.632258c43.602907-54.801665 56.138291-95.37007 56.138291-147.137233 0-96.417696-71.527552-184.05701-168.306499-184.05701-81.85931 0-175.892754 85.038312-224.444789 145.800607-49.924787-63.002046-142.621604-146.523107-224.444789-145.800607-99.488323 0.758626-168.342623 87.603189-168.342624 184.020885 0 51.767163 15.822762 89.590066 56.138291 145.547732l336.612997 403.26367 336.649122-401.638044z" fill="#231815" p-id="2171"></path></svg>