<?xml version="1.0" standalone="no"?><!DOCTYPE svg PUBLIC "-//W3C//DTD SVG 1.1//EN" "http://www.w3.org/Graphics/SVG/1.1/DTD/svg11.dtd"><svg t="1620451374174" class="icon" viewBox="0 0 1024 1024" version="1.1" xmlns="http://www.w3.org/2000/svg" p-id="4331" xmlns:xlink="http://www.w3.org/1999/xlink" width="200" height="200"><defs><style type="text/css"></style></defs><path d="M614.422674 343.04a192.365714 192.365714 0 1 0 0 271.36 193.097143 193.097143 0 0 0 0-271.36z" p-id="4332"></path><path d="M856.306103 786.066286l13.165714-16.822857a482.011429 482.011429 0 0 0 0-571.977143l-13.165714-17.554286 57.782857-57.051429a51.712 51.712 0 0 0-73.142857-73.142857l-57.051429 57.051429-16.822857-12.434286a482.742857 482.742857 0 0 0-572.708571 0l-17.554286 13.165714-58.514286-58.514285a51.712 51.712 0 0 0-73.142857 73.142857l59.977143 59.977143-13.165714 17.554285a482.742857 482.742857 0 0 0 0 566.857143l12.434285 16.822857-62.171428 62.902858a51.712 51.712 0 0 0 73.142857 73.142857l62.902857-62.902857 17.554286 13.165714a482.011429 482.011429 0 0 0 563.931428 0l17.554286-12.434286 60.708572 60.708572a51.712 51.712 0 1 0 73.142857-73.142858l-54.857143-58.514285z m-190.171429-51.931429l51.931429 51.931429-26.331429 16.822857a381.074286 381.074286 0 0 1-407.405714 0l-27.062857-16.822857 50.468571-50.468572a51.712 51.712 0 1 0-73.142857-73.142857l-50.468571 50.468572-16.822857-26.331429a382.537143 382.537143 0 0 1 0-408.868571l16.822857-26.331429 52.662857 52.662857a51.712 51.712 0 1 0 73.142857-73.142857l-54.125714-54.125714 25.6-16.822857a381.805714 381.805714 0 0 1 416.182857 0l25.6 16.822857-57.051429 58.514285a51.712 51.712 0 0 0 73.142857 73.142858l55.588572-55.588572 16.822857 26.331429a380.342857 380.342857 0 0 1 0 414.72l-16.822857 25.6-60.708572-52.662857a49.737143 49.737143 0 0 0-73.142857 0 49.005714 49.005714 0 0 0 5.12 67.291428z" p-id="4333"></path></svg>