<?xml version="1.0" standalone="no"?><!DOCTYPE svg PUBLIC "-//W3C//DTD SVG 1.1//EN" "http://www.w3.org/Graphics/SVG/1.1/DTD/svg11.dtd"><svg t="1619944043155" class="icon" viewBox="0 0 1024 1024" version="1.1" xmlns="http://www.w3.org/2000/svg" p-id="1231" xmlns:xlink="http://www.w3.org/1999/xlink" width="200" height="200"><defs><style type="text/css"></style></defs><path d="M144.57 496.12c11.27-9.82 22.53-19.64 33.8-29.46l81.09-70.68c32.65-28.45 65.29-56.91 97.94-85.36 28.11-24.5 56.22-49.01 84.33-73.51 13.43-11.7 26.83-23.44 40.28-35.11 1.05-0.91 2.12-1.81 3.21-2.68-1.64 1.3-3.27 2.61-4.91 3.91a76.222 76.222 0 0 1 15.98-9.55l-5.79 2.52a74.434 74.434 0 0 1 18.49-5.15c-2.15 0.3-4.3 0.6-6.44 0.89 6.34-0.81 12.67-0.81 19.01 0-2.15-0.3-4.3-0.6-6.44-0.89 6.37 0.92 12.53 2.63 18.49 5.15l-5.79-2.52c5.71 2.52 11.02 5.7 15.98 9.55-1.64-1.3-3.27-2.61-4.91-3.91 12.18 9.77 23.69 20.53 35.46 30.8 26.84 23.39 53.68 46.79 80.52 70.18l97.9 85.33 84.84 73.95c13.78 12.01 27.49 24.1 41.33 36.02 0.2 0.17 0.39 0.34 0.59 0.51 5.01 4.36 10.38 7.32 17.14 7.32 5.94 0 13.05-2.72 17.14-7.32 8.27-9.29 10.34-26.34 0-35.36l-37.19-32.42-87.86-76.58c-34.32-29.91-68.63-59.82-102.95-89.73-27.37-23.86-54.75-47.72-82.12-71.58-7.54-6.57-15.08-13.14-22.61-19.71-1.57-1.37-3.13-2.74-4.7-4.1-10.68-9.26-21.9-16.19-35.2-20.71-18.88-6.41-41.08-6.31-59.83 0.57-12.76 4.68-23.36 11.26-33.7 20.23-4.77 4.14-9.51 8.29-14.27 12.44l-72.44 63.14-100.74 87.81c-31.59 27.53-63.17 55.07-94.76 82.6-17.56 15.31-35.13 30.62-52.69 45.93-0.81 0.71-1.62 1.41-2.43 2.12-4.51 3.93-7.1 11.81-7.1 17.68 0 6.13 2.64 13.46 7.1 17.68 4.62 4.37 10.68 7.62 17.14 7.32 6.7-0.31 11.97-2.84 17.11-7.32zM768.98 529.26V781.28c0 10.9 0.06 21.8 0 32.7-0.01 1.94-0.12 3.85-0.34 5.78l0.87-6.65a47.46 47.46 0 0 1-2.9 11.2c0.81-1.99 1.63-3.98 2.44-5.97-1.45 3.5-3.29 6.75-5.52 9.79 1.26-1.69 2.53-3.37 3.79-5.06a46.502 46.502 0 0 1-7.71 7.96c1.64-1.3 3.27-2.61 4.91-3.91-2.95 2.3-6.1 4.19-9.49 5.69l5.79-2.52c-3.5 1.47-7.11 2.47-10.86 3 2.15-0.3 4.3-0.6 6.44-0.89-5.63 0.69-11.47 0.35-17.13 0.35H291.3c-5.89 0-11.78 0.02-17.67 0a50.97 50.97 0 0 1-5.92-0.35c2.15 0.3 4.3 0.6 6.44 0.89-3.75-0.53-7.35-1.52-10.86-3l5.79 2.52c-3.4-1.5-6.55-3.39-9.49-5.69 1.64 1.3 3.27 2.61 4.91 3.91a45.763 45.763 0 0 1-7.71-7.96c1.26 1.69 2.53 3.37 3.79 5.06a47.126 47.126 0 0 1-5.52-9.79c0.81 1.99 1.63 3.98 2.44 5.97a46.859 46.859 0 0 1-2.9-11.2l0.87 6.65c-0.46-3.99-0.34-8.02-0.34-12.03v-19.96-67.64-83.18-72.05c0-11.71 0.16-23.43 0-35.14v-0.5c0-6.41-2.7-13.14-7.1-17.68-4.2-4.34-11.1-7.6-17.14-7.32-13.13 0.61-24.24 10.98-24.24 25V778.53c0 11.69-0.03 23.37 0 35.06 0.01 6.46 0.77 13.1 2.51 19.31 3.36 12 10.11 23.89 19.37 32.06 12.87 11.37 28.28 17.75 45.34 17.79 7.71 0.01 15.43 0 23.14 0H742.93c2.47 0 4.95 0.01 7.42 0 17.33-0.04 33.57-6.73 46.31-18.79 13.54-12.82 20.75-31.77 20.79-50.54 0.01-3.99 0-7.98 0-11.98v-56.72-80.26-77.57-50.52-7.12c0-6.41-2.7-13.14-7.1-17.68-4.2-4.34-11.1-7.6-17.14-7.32-13.13 0.62-24.23 11-24.23 25.01z" p-id="1232"></path><path d="M432.38 750.45h159.34c19.73 0 35.73-16.5 35.73-36.85v-66.09c0-20.35-16-36.85-35.73-36.85H432.38c-19.73 0-35.73 16.5-35.73 36.85v66.09c0 20.36 16 36.85 35.73 36.85z" p-id="1233"></path></svg>