<?xml version="1.0" standalone="no"?><!DOCTYPE svg PUBLIC "-//W3C//DTD SVG 1.1//EN" "http://www.w3.org/Graphics/SVG/1.1/DTD/svg11.dtd"><svg t="1620451348527" class="icon" viewBox="0 0 1024 1024" version="1.1" xmlns="http://www.w3.org/2000/svg" p-id="4186" xmlns:xlink="http://www.w3.org/1999/xlink" width="200" height="200"><defs><style type="text/css"></style></defs><path d="M142.931326 853.614299L96.09031 338.363123l-88.624647 5.539041L288.993415 138.596425l-7.826905 139.078081L315.484478 369.670743l-19.62747 71.766698 51.898401 71.285043-41.061147 76.824082 45.998118 73.813735-32.150517 60.809031 68.75635 109.57667-246.366887 19.868297zM110.178739 321.746002l46.841016 514.889934L362.445908 820.139229l-59.84572-95.367827 32.150518-60.809031-46.118533-73.934149 40.699906-76.101599-50.573848-69.478834 20.349953-74.174976-33.595484-90.310442 6.14111-109.335842L59.966134 324.997178l50.212605-3.251176z" p-id="4187"></path><path d="M930.317968 834.709313H370.995296l-55.992474-112.587018 2.408279-3.732831c14.931326-22.637817 30.946378-48.165569 35.883349-57.437441-1.565381-2.528692-3.37159-5.779868-5.539041-10.11477-3.37159-6.502352-7.706491-15.533396-13.125117-26.852305-9.031044-19.145814-17.821261-38.532455-17.821261-38.773283l-1.806209-3.973659 47.443086-68.997178-41.904045-69.35842 26.611477-67.311383-25.888994-102.713076L350.043274 142.088429 626.152399 311.87206h-86.698025v129.324553l184.233302-113.309501 284.899342 179.777987h-78.26905v327.044214z m-549.569144-15.65381h533.915334V492.011289h39.857009l-230.953905-145.700847L523.800564 469.253057V296.21825h47.081844L360.519285 167.014111l-23.239887 105.60301 26.250235 104.03763-25.527752 64.78269 43.108185 71.405456-48.165569 69.96049c13.968015 30.946378 29.742239 63.939793 33.956726 70.201317 0.963311 0.722484 1.806209 1.565381 2.287864 2.649106 2.528692 4.575729 0.240828 8.790216-5.53904 18.664158-3.130762 5.418627-7.706491 12.763876-13.365945 21.915334-6.863594 10.837253-13.727187 21.554092-17.339605 26.972719l47.804327 95.849482zM171.830668 496.466604l-11.318909-117.283161h86.818439l9.753527 110.058326-85.253057 7.224835z m5.900282-101.629351l8.188147 84.771402 54.186265-4.575729-7.104421-80.195673h-55.269991zM195.552211 691.416745l-10.957667-112.827846h80.918156l9.873942 110.901223-79.834431 1.926623z m6.261524-97.29445l7.947319 81.279398 48.526811-1.204139-7.104422-79.954845h-49.369708z" p-id="4188"></path><path d="M481.655691 480.812794h-87.781749v-119.08937l87.781749 1.565381v117.523989z m-72.127939-15.65381H466.001881v-86.577611l-56.474129-0.963311v87.540922zM481.655691 680.21825h-87.781749V561.128881l87.781749 1.565381v117.523988z m-72.127939-15.65381H466.001881V577.98683l-56.474129-0.963312v87.540922zM674.07714 680.21825h-87.78175V561.128881l87.78175 1.565381v117.523988z m-72.12794-15.65381h56.47413V577.98683l-56.47413-0.963312v87.540922zM867.341486 680.21825h-87.781749V561.128881l87.781749 1.565381v117.523988z m-72.127939-15.65381h56.474129V577.98683l-56.474129-0.963312v87.540922z" p-id="4189"></path></svg>