<?xml version="1.0" standalone="no"?><!DOCTYPE svg PUBLIC "-//W3C//DTD SVG 1.1//EN" "http://www.w3.org/Graphics/SVG/1.1/DTD/svg11.dtd"><svg t="1619944062418" class="icon" viewBox="0 0 1024 1024" version="1.1" xmlns="http://www.w3.org/2000/svg" p-id="1509" xmlns:xlink="http://www.w3.org/1999/xlink" width="200" height="200"><defs><style type="text/css"></style></defs><path d="M444.88 843.46v-46.09-72.92c0-6.1-0.44-12.4 0.19-18.48l-0.87 6.65c0.29-2 0.77-3.88 1.46-5.77-0.82 1.99-1.63 3.98-2.45 5.97 0.88-2.13 1.95-4.04 3.3-5.88-1.27 1.69-2.54 3.37-3.8 5.06 1.2-1.51 2.51-2.85 3.98-4.09-1.64 1.3-3.28 2.61-4.92 3.91 1.8-1.39 3.65-2.49 5.72-3.39-1.94 0.84-3.87 1.68-5.81 2.52 1.84-0.71 3.68-1.2 5.62-1.5-2.16 0.3-4.31 0.6-6.47 0.89 4.9-0.54 9.97-0.2 14.88-0.2H557.48c5.99 0 12.2-0.46 18.17 0.2-2.16-0.3-4.31-0.6-6.47-0.89 1.94 0.3 3.78 0.79 5.62 1.5-1.94-0.84-3.87-1.68-5.81-2.52 2.07 0.9 3.93 2 5.72 3.39-1.64-1.3-3.28-2.61-4.92-3.91 1.47 1.24 2.78 2.58 3.98 4.09-1.27-1.69-2.54-3.37-3.8-5.06 1.35 1.85 2.42 3.76 3.3 5.88-0.82-1.99-1.63-3.98-2.45-5.97 0.69 1.89 1.16 3.78 1.46 5.77l-0.87-6.65c0.62 5.91 0.19 12.05 0.19 17.98v112.52c0 2.22-0.03 4.45 0 6.67 0.19 12.96 4.85 25.17 13.61 34.54 8.92 9.54 21.56 14.49 34.29 14.67 2.49 0.04 4.98 0 7.46 0h95.5c7.35 0 14.72 0.12 22.07 0 26.37-0.43 47.33-22 47.75-49.1 0.17-11.04 0-22.11 0-33.15v-72.99-87.02-76.18-40.24c0-1.55 0.03-3.06 0.19-4.61l-0.87 6.65c0.29-2 0.77-3.88 1.46-5.77-0.82 1.99-1.63 3.98-2.45 5.97 0.88-2.13 1.95-4.04 3.3-5.88-1.27 1.69-2.54 3.37-3.8 5.06 1.2-1.51 2.51-2.85 3.98-4.09-1.64 1.3-3.28 2.61-4.92 3.91 1.8-1.39 3.65-2.49 5.72-3.39-1.94 0.84-3.87 1.68-5.81 2.52 1.84-0.71 3.68-1.2 5.62-1.5-2.16 0.3-4.31 0.6-6.47 0.89 7.37-0.81 24.78-0.2 32.17-0.2h43.06c7.96 0 15.5-1.48 22.62-5.32 13.41-7.21 22.37-23.22 21.93-38.75-0.36-12.79-5.92-24.35-15.3-32.61-2.94-2.59-5.89-5.18-8.83-7.78-12-10.57-24.01-21.14-36.01-31.71-17.94-15.8-35.88-31.59-53.82-47.39l-63.57-55.98c-21.76-19.16-43.51-38.32-65.27-57.48-19.64-17.29-39.28-34.59-58.92-51.88-14.84-13.06-29.67-26.13-44.51-39.19-7.36-6.48-14.72-12.95-22.07-19.44l-1.02-0.9c-6.5-5.66-13.76-10.65-22.36-12.08-10.81-1.79-20.31-0.61-30.26 4.09-5.33 2.52-9.72 6.82-14.16 10.74-9.09 8.03-18.17 16.06-27.26 24.09l-48.54 42.9-61.27 54.16c-21.91 19.37-43.82 38.73-65.73 58.1-20.27 17.92-40.54 35.84-60.82 53.76l-48.34 42.73-26.61 23.52c-4.77 4.22-9.2 8.88-12.02 14.8-7.11 14.9-7.1 30.72-0.03 45.62 5.76 12.14 18.02 21.93 30.88 24.66 9.99 2.12 20.59 1.32 30.73 1.32h12.25c7.7 0 25.44-0.65 33.12 0.2-2.16-0.3-4.31-0.6-6.47-0.89 1.94 0.3 3.78 0.79 5.62 1.5-1.94-0.84-3.87-1.68-5.81-2.52 2.07 0.9 3.93 2 5.72 3.39-1.64-1.3-3.28-2.61-4.92-3.91 1.47 1.24 2.78 2.58 3.98 4.09-1.27-1.69-2.54-3.37-3.8-5.06 1.35 1.85 2.42 3.76 3.3 5.88-0.82-1.99-1.63-3.98-2.45-5.97 0.69 1.89 1.16 3.78 1.46 5.77l-0.87-6.65c0.69 6.61 0.19 13.48 0.19 20.11V840.72c0 8.49 1.59 16.38 4.97 24.17 7.5 17.33 25.59 27.35 43.55 27.44 5.91 0.03 11.83 0 17.74 0h103.38c13.86 0 27.06-3.99 37.11-14.32 8.92-9.16 13.65-21.65 13.91-34.55 0.27-13.08-11.38-25.6-24.32-25-13.41 0.62-24.03 10.98-24.32 25-0.02 1.04-0.08 2.04-0.19 3.08l0.87-6.65c-0.29 2-0.77 3.88-1.46 5.77 0.82-1.99 1.63-3.98 2.45-5.97-0.88 2.13-1.95 4.04-3.3 5.88 1.27-1.69 2.54-3.37 3.8-5.06-1.2 1.51-2.51 2.85-3.98 4.09 1.64-1.3 3.28-2.61 4.92-3.91-1.8 1.39-3.65 2.49-5.72 3.39 1.94-0.84 3.87-1.68 5.81-2.52-1.84 0.71-3.68 1.2-5.62 1.5 2.16-0.3 4.31-0.6 6.47-0.89-4.26 0.47-8.65 0.2-12.92 0.2H284.05c-5.04 0-10.24 0.36-15.27-0.2 2.16 0.3 4.31 0.6 6.47 0.89-1.94-0.3-3.78-0.79-5.62-1.5 1.94 0.84 3.87 1.68 5.81 2.52-2.07-0.9-3.93-2-5.72-3.39 1.64 1.3 3.28 2.61 4.92 3.91a28.506 28.506 0 0 1-3.98-4.09c1.27 1.69 2.54 3.37 3.8 5.06a28.062 28.062 0 0 1-3.3-5.88c0.82 1.99 1.63 3.98 2.45 5.97-0.69-1.89-1.16-3.78-1.46-5.77l0.87 6.65c-0.58-5.58-0.19-11.36-0.19-16.95v-38.2-114.12-108.79-30.58c0-1.84 0.03-3.69 0-5.53-0.27-17.44-9.36-35.24-24.95-43.22-9.29-4.75-18.65-5.9-28.74-5.9h-53.92c-1.93 0-3.81-0.02-5.74-0.28 2.16 0.3 4.31 0.6 6.47 0.89-2-0.35-3.88-0.9-5.75-1.7 1.94 0.84 3.87 1.68 5.81 2.52-1.75-0.83-3.35-1.82-4.88-3.02 1.64 1.3 3.28 2.61 4.92 3.91a26.105 26.105 0 0 1-3.91-4.09c1.27 1.69 2.54 3.37 3.8 5.06a27.989 27.989 0 0 1-3.15-5.63c0.82 1.99 1.63 3.98 2.45 5.97-0.78-2.05-1.3-4.11-1.59-6.29l0.87 6.65c-0.19-1.93-0.19-3.8 0.01-5.73l-0.87 6.65c0.27-1.96 0.74-3.81 1.42-5.67-0.82 1.99-1.63 3.98-2.45 5.97 0.79-1.92 1.75-3.66 2.94-5.35-1.27 1.69-2.54 3.37-3.8 5.06 3.21-4.22 7.79-7.58 11.72-11.06l24.54-21.69c27.45-24.27 54.9-48.53 82.35-72.8 33.41-29.54 66.83-59.07 100.24-88.61l86.65-76.6c13.86-12.25 27.76-24.46 41.58-36.76 0.7-0.62 1.4-1.25 2.13-1.84-1.64 1.3-3.28 2.61-4.92 3.91 1.44-1.07 2.92-1.95 4.53-2.71-1.94 0.84-3.87 1.68-5.81 2.52 1.94-0.79 3.86-1.33 5.93-1.63-2.16 0.3-4.31 0.6-6.47 0.89 1.71-0.17 3.37-0.17 5.08-0.01-2.16-0.3-4.31-0.6-6.47-0.89 2.06 0.3 3.99 0.82 5.93 1.61-1.94-0.84-3.87-1.68-5.81-2.52 1.62 0.75 3.1 1.63 4.54 2.69-1.64-1.3-3.28-2.61-4.92-3.91 12.69 10.32 24.68 21.69 36.97 32.51 28.45 25.05 56.9 50.1 85.35 75.16l103.23 90.9c29.77 26.22 59.55 52.44 89.32 78.65 14.05 12.37 28.17 24.67 42.16 37.12 1.17 1.04 2.28 2.14 3.25 3.39-1.27-1.69-2.54-3.37-3.8-5.06a22.56 22.56 0 0 1 2.18 3.82c-0.82-1.99-1.63-3.98-2.45-5.97 0.62 1.59 1.04 3.18 1.28 4.88l-0.87-6.65c0.16 1.67 0.13 3.27-0.07 4.93l0.87-6.65a23.2 23.2 0 0 1-1.32 4.71c0.82-1.99 1.63-3.98 2.45-5.97a22.13 22.13 0 0 1-2.45 4.21c1.27-1.69 2.54-3.37 3.8-5.06a22.33 22.33 0 0 1-2.83 2.92c1.64-1.3 3.28-2.61 4.92-3.91a20.41 20.41 0 0 1-4.24 2.57c1.94-0.84 3.87-1.68 5.81-2.52-1.37 0.54-2.72 0.91-4.16 1.17 2.16-0.3 4.31-0.6 6.47-0.89-4.25 0.53-8.68 0.2-12.95 0.2h-59.33c-10.23 0-20.27 1.24-29.29 6.84-14.58 9.05-23.07 25.08-23.29 42.47-0.09 6.69 0 13.38 0 20.07v223.59c0 22.16 0.12 44.32 0 66.47-0.01 1.29-0.06 2.56-0.19 3.85l0.87-6.65c-0.29 2-0.77 3.88-1.46 5.77 0.82-1.99 1.63-3.98 2.45-5.97-0.88 2.13-1.95 4.04-3.3 5.88 1.27-1.69 2.54-3.37 3.8-5.06-1.2 1.51-2.51 2.85-3.98 4.09 1.64-1.3 3.28-2.61 4.92-3.91-1.8 1.39-3.65 2.49-5.72 3.39 1.94-0.84 3.87-1.68 5.81-2.52-1.84 0.71-3.68 1.2-5.62 1.5 2.16-0.3 4.31-0.6 6.47-0.89-4.26 0.47-8.65 0.2-12.92 0.2H631.41c-5.04 0-10.24 0.36-15.27-0.2 2.16 0.3 4.31 0.6 6.47 0.89-1.94-0.3-3.78-0.79-5.62-1.5 1.94 0.84 3.87 1.68 5.81 2.52-2.07-0.9-3.93-2-5.72-3.39 1.64 1.3 3.28 2.61 4.92 3.91a28.506 28.506 0 0 1-3.98-4.09c1.27 1.69 2.54 3.37 3.8 5.06a28.062 28.062 0 0 1-3.3-5.88c0.82 1.99 1.63 3.98 2.45 5.97-0.69-1.89-1.16-3.78-1.46-5.77l0.87 6.65c-0.4-3.81-0.19-7.73-0.19-11.55V812.1v-63c0-13.18 0.09-26.35 0-39.53-0.15-21.51-13.01-39.55-32.5-46.87-6.66-2.5-13.65-2.59-20.61-2.59H459.2c-4.79 0-9.58-0.02-14.38 0-17.19 0.07-34 9.01-42.44 24.79-7.96 14.88-6.18 32.26-6.18 48.6V843.43c0 13.08 11.19 25.6 24.32 25 13.22-0.58 24.36-10.96 24.36-24.97z" p-id="1510"></path><path d="M419.54 544.67h168.37c2.28 0 4.56 0.01 6.84 0h0.3c3.35 0.13 6.47-0.59 9.37-2.15 3.02-1.01 5.62-2.73 7.83-5.17a18.8 18.8 0 0 0 5.03-8.05c1.52-2.98 2.22-6.19 2.09-9.63l-0.87-6.65c-1.16-4.24-3.24-7.91-6.26-11.03-4.76-4.49-10.61-7.32-17.2-7.32H426.67c-2.28 0-4.56-0.01-6.84 0h-0.3c-3.35-0.13-6.47 0.59-9.37 2.15-3.02 1.01-5.62 2.73-7.83 5.17a18.8 18.8 0 0 0-5.03 8.05c-1.52 2.98-2.22 6.19-2.09 9.63l0.87 6.65c1.16 4.24 3.24 7.91 6.26 11.03 4.76 4.49 10.61 7.32 17.2 7.32z" p-id="1511"></path></svg>