<?xml version="1.0" standalone="no"?><!DOCTYPE svg PUBLIC "-//W3C//DTD SVG 1.1//EN" "http://www.w3.org/Graphics/SVG/1.1/DTD/svg11.dtd"><svg t="1620452576989" class="icon" viewBox="0 0 1024 1024" version="1.1" xmlns="http://www.w3.org/2000/svg" p-id="6808" xmlns:xlink="http://www.w3.org/1999/xlink" width="200" height="200"><defs><style type="text/css"></style></defs><path d="M662.622 561.268c68.524-46.884 113.61-126.232 113.61-216.4 0-146.069-119.021-265.09-265.09-265.09-146.072 0-263.29 119.021-263.29 263.285 0 90.17 45.086 169.517 113.611 216.401-155.087 61.314-263.285 210.99-263.285 385.913h73.936c0-173.119 131.641-317.384 299.353-337.221 1.804 0 46.886-3.607 84.756 0h3.607c164.105 23.441 290.337 164.101 290.337 335.417h75.74C924.1 770.454 815.902 620.778 662.621 561.268z m-151.48-19.836c-110.006 0-198.367-88.364-198.367-198.369 0-110.002 88.362-198.363 198.368-198.363 110 0 198.363 88.361 198.363 198.363 0 110.006-88.362 198.369-198.363 198.369z m0 0" p-id="6809"></path></svg>