<?xml version="1.0" standalone="no"?><!DOCTYPE svg PUBLIC "-//W3C//DTD SVG 1.1//EN" "http://www.w3.org/Graphics/SVG/1.1/DTD/svg11.dtd"><svg t="1619943658375" class="icon" viewBox="0 0 1024 1024" version="1.1" xmlns="http://www.w3.org/2000/svg" p-id="1894" xmlns:xlink="http://www.w3.org/1999/xlink" width="200" height="200"><defs><style type="text/css"></style></defs><path d="M849.154872 961.214704H175.892754c-61.990545 0-112.276582-50.249912-112.276582-112.168207V175.784379c0-61.990545 50.249912-112.276582 112.276582-112.276582h673.262118c61.990545 0 112.168207 50.249912 112.168207 112.276582v673.262118c0 61.918295-50.177662 112.168207-112.168207 112.168207zM905.293163 175.784379c0-31.031398-25.179143-56.138291-56.138291-56.138291H175.892754c-30.959148 0-56.138291 25.106893-56.138291 56.138291v673.262118c0 30.959148 25.179143 56.066041 56.138291 56.066041h673.262118c30.959148 0 56.138291-25.106893 56.138291-56.066041V175.784379zM680.812249 540.430396h-296.947718l115.56396 115.63621c11.018133 10.945883 11.018133 28.647146 0 39.665279-10.945883 10.945883-28.647146 10.945883-39.665279 0l-158.624991-158.697242c-6.75538-6.75538-8.814506-15.931137-7.297256-24.637268-1.517251-8.706131 0.541875-17.954138 7.297256-24.637268l158.624991-158.697241c11.018133-10.945883 28.719396-10.945883 39.665279 0a27.93187 27.93187 0 0 1 0 39.665279l-115.56396 115.56396h296.947718c15.497636 0 28.033021 12.535384 28.03302 28.10527 0 15.497636-12.535384 28.033021-28.03302 28.033021z" fill="#231815" p-id="1895"></path></svg>