<?xml version="1.0" standalone="no"?><!DOCTYPE svg PUBLIC "-//W3C//DTD SVG 1.1//EN" "http://www.w3.org/Graphics/SVG/1.1/DTD/svg11.dtd"><svg t="1619944329006" class="icon" viewBox="0 0 1024 1024" version="1.1" xmlns="http://www.w3.org/2000/svg" p-id="73037" xmlns:xlink="http://www.w3.org/1999/xlink" width="200" height="200"><defs><style type="text/css"></style></defs><path d="M512 960C264.97 960 64 759.03 64 512S264.97 64 512 64s448 200.97 448 448-200.97 448-448 448z m0-843.29c-217.97 0-395.29 177.33-395.29 395.29S294.03 907.29 512 907.29 907.29 729.97 907.29 512 729.97 116.71 512 116.71z" fill="#2c2c2c" p-id="73038"></path><path d="M409.51 785.78c-45.76 0-88.76-17.82-121.11-50.17-66.8-66.79-66.8-175.46 0-242.25 32.35-32.36 75.35-50.18 121.11-50.18s88.77 17.82 121.12 50.18c66.8 66.79 66.8 175.46 0 242.25-32.35 32.36-75.36 50.17-121.12 50.17z m0-289.88c-31.67 0-61.44 12.34-83.85 34.74-46.23 46.24-46.23 121.48 0 167.72 22.39 22.4 52.18 34.73 83.85 34.73 31.68 0 61.46-12.33 83.86-34.73 46.23-46.24 46.23-121.48 0-167.72-22.4-22.4-52.18-34.74-83.86-34.74zM512 716.98h0.13-0.13zM719.63 458.83c-14.55 0-26.35-11.8-26.35-26.35V330.72H591.52c-14.55 0-26.35-11.8-26.35-26.35s11.8-26.35 26.35-26.35h119.05c19.52 0 35.41 15.89 35.41 35.41v119.05c0.01 14.55-11.79 26.35-26.35 26.35z m-9.06-128.11h0.13-0.13z" fill="#2c2c2c" p-id="73039"></path><path d="M512 538.35c-6.74 0-13.49-2.57-18.63-7.72a26.259 26.259 0 0 1-7.72-18.63c0-6.74 2.57-13.49 7.72-18.63l204.98-204.98c10.29-10.29 26.97-10.29 37.26 0 5.15 5.15 7.72 11.89 7.72 18.63s-2.57 13.49-7.72 18.63L530.63 530.63c-5.14 5.15-11.89 7.72-18.63 7.72z" fill="#2c2c2c" p-id="73040"></path></svg>