<?xml version="1.0" standalone="no"?><!DOCTYPE svg PUBLIC "-//W3C//DTD SVG 1.1//EN" "http://www.w3.org/Graphics/SVG/1.1/DTD/svg11.dtd"><svg t="1619943640989" class="icon" viewBox="0 0 1024 1024" version="1.1" xmlns="http://www.w3.org/2000/svg" p-id="1618" xmlns:xlink="http://www.w3.org/1999/xlink" width="200" height="200"><defs><style type="text/css"></style></defs><path d="M848.829747 961.214704H175.567629c-61.918295 0-112.168207-50.249912-112.168208-112.168207V175.784379c0-61.990545 50.249912-112.276582 112.168208-112.276582h673.262118c61.990545 0 112.276582 50.249912 112.276582 112.276582v673.262118c0 61.918295-50.249912 112.168207-112.276582 112.168207z m56.138291-785.430325c0-31.031398-25.070768-56.138291-56.138291-56.138291H175.567629c-30.959148 0-56.029916 25.106893-56.029916 56.138291v673.262118c0 30.959148 25.070768 56.066041 56.029916 56.066041h673.262118c31.031398 0 56.138291-25.106893 56.138291-56.066041V175.784379zM723.58428 537.070768l-158.624991 158.624992a27.93187 27.93187 0 0 1-39.665279 0 27.97522 27.97522 0 0 1 0-39.593029l115.563959-115.63621H343.910252c-15.497636 0-28.033021-12.535384-28.033021-28.033021 0-15.569886 12.535384-28.105271 28.033021-28.10527h296.947717l-115.563959-115.56396a28.061921 28.061921 0 0 1 0-39.665279 28.061921 28.061921 0 0 1 39.665279 0l158.624991 158.697241c6.75538 6.68313 8.886757 15.931137 7.297255 24.637268 1.589501 8.706131-0.541875 17.881888-7.297255 24.637268z" fill="#231815" p-id="1619"></path></svg>