<?xml version="1.0" standalone="no"?><!DOCTYPE svg PUBLIC "-//W3C//DTD SVG 1.1//EN" "http://www.w3.org/Graphics/SVG/1.1/DTD/svg11.dtd"><svg t="1619944813329" class="icon" viewBox="0 0 1024 1024" version="1.1" xmlns="http://www.w3.org/2000/svg" p-id="2815" xmlns:xlink="http://www.w3.org/1999/xlink" width="200" height="200"><defs><style type="text/css"></style></defs><path d="M511.999 0C229.229 0 0 229.23 0 512c0 282.771 229.23 512 511.999 512C794.769 1024 1024 794.771 1024 512 1024 229.23 794.769 0 511.999 0zM511.999 937.926C276.767 937.926 86.073 747.232 86.073 512S276.768 86.073 511.999 86.073c235.23 0 425.927 190.694 425.927 425.927S747.23 937.926 511.999 937.926z" p-id="2816"></path><path d="M691.691 332.308c-16.717-16.717-43.823-16.717-60.541 0L512 451.459 392.851 332.308c-16.718-16.717-43.825-16.717-60.542 0-16.719 16.719-16.719 43.824 0 60.542L451.459 512l-119.15 119.15c-16.719 16.718-16.719 43.824 0 60.541 16.717 16.719 43.824 16.719 60.542 0L512 572.541l119.15 119.15c16.719 16.719 43.824 16.719 60.541 0 16.719-16.717 16.719-43.823 0-60.541L572.541 512l119.15-119.15C708.408 376.132 708.408 349.026 691.691 332.308z" p-id="2817"></path></svg>