<?xml version="1.0" standalone="no"?><!DOCTYPE svg PUBLIC "-//W3C//DTD SVG 1.1//EN" "http://www.w3.org/Graphics/SVG/1.1/DTD/svg11.dtd"><svg t="1619944458694" class="icon" viewBox="0 0 1262 1024" version="1.1" xmlns="http://www.w3.org/2000/svg" p-id="75832" xmlns:xlink="http://www.w3.org/1999/xlink" width="246.484375" height="200"><defs><style type="text/css"></style></defs><path d="M664.132267 9.0112a46.250667 46.250667 0 0 0-12.3904 2.423467L53.794133 210.432a47.786667 47.786667 0 0 0-31.914666 43.963733V984.064c0.546133 41.813333 91.921067 40.6528 92.9792 0V287.5392L665.019733 104.789333l486.229334 181.998934v697.344c0.546133 38.8096 95.095467 40.6528 93.047466 0V254.395733c0-18.8416-12.6976-37.000533-30.3104-43.52L682.3936 11.8784a47.445333 47.445333 0 0 0-18.261333-2.8672zM462.848 471.6544c-8.0896 1.297067-14.677333 7.748267-14.609067 14.506667v58.914133c0 7.748267 8.635733 14.506667 17.954134 14.609067h141.073066c9.216-0.170667 17.8176-6.929067 17.92-14.677334v-58.845866c0-7.645867-8.635733-14.506667-17.851733-14.506667h-141.141333a11.639467 11.639467 0 0 0-3.345067 0z m229.1712 0c-7.9872 1.297067-14.267733 7.748267-14.097067 14.506667v58.914133c0 7.748267 8.635733 14.506667 17.8176 14.609067h140.834134c9.216 0.068267 18.090667-6.792533 18.261333-14.609067v-58.914133c-0.170667-7.645867-8.977067-14.677333-18.261333-14.506667h-140.834134a14.609067 14.609067 0 0 0-3.754666 0z m-456.704 140.4928c-8.635733 0.682667-16.247467 7.68-16.247467 15.018667v58.402133c0 7.68 8.328533 15.018667 17.442134 15.018667h141.585066c9.216 0 17.339733-7.338667 17.408-15.018667v-58.402133c-0.068267-7.68-8.192-15.018667-17.408-15.018667H235.3152z m229.137067 0c-8.704 0.682667-16.110933 7.68-16.213334 15.018667v58.402133c0 7.68 8.635733 15.018667 17.954134 15.018667h141.073066c9.216 0 17.8176-7.338667 17.8176-15.018667v-58.402133c0-7.68-8.635733-15.018667-17.8176-15.018667h-142.779733z m229.2736 0c-8.635733 0.8192-15.803733 7.850667-15.803734 15.018667v58.402133c0 7.68 8.635733 15.018667 17.8176 15.018667h140.834134c9.216 0.170667 18.090667-7.168 18.261333-15.018667v-58.402133c-0.170667-7.850667-8.977067-15.189333-18.261333-15.018667h-142.882134zM233.198933 753.664c-8.021333 1.297067-14.267733 7.645867-14.1312 14.4384v58.914133c0 7.748267 8.328533 14.574933 17.442134 14.574934h141.585066c9.216 0 17.339733-6.826667 17.408-14.574934v-58.914133c-0.068267-7.611733-8.192-14.4384-17.408-14.4384H236.509867a11.605333 11.605333 0 0 0-3.310934 0z m229.649067 0c-8.0896 1.297067-14.677333 7.645867-14.609067 14.4384v58.914133c0 7.748267 8.635733 14.574933 17.954134 14.574934h141.073066c9.216 0 17.8176-6.826667 17.8176-14.574934v-58.914133c0-7.611733-8.635733-14.4384-17.8176-14.4384h-141.073066a11.605333 11.605333 0 0 0-3.345067 0z m229.1712 0c-7.9872 1.297067-14.267733 7.645867-14.097067 14.4384v58.914133c0 7.748267 8.635733 14.574933 17.8176 14.574934h140.834134c9.216 0.1024 18.090667-6.7584 18.261333-14.574934v-58.914133c-0.170667-7.748267-8.977067-14.677333-18.261333-14.4384h-140.834134a14.609067 14.609067 0 0 0-3.754666 0z m229.1712 0c-7.918933 1.365333-13.858133 7.850667-13.789867 14.4384v58.914133c0.170667 7.748267 8.328533 14.574933 17.6128 14.574934h141.073067c9.1136 0 17.339733-6.826667 17.5104-14.574934v-58.914133c-0.1024-7.611733-8.3968-14.4384-17.5104-14.4384H925.013333a15.291733 15.291733 0 0 0-3.822933 0zM235.3152 894.0544c-8.635733 0.648533-16.247467 7.748267-16.247467 15.018667v58.4704c0 7.68 8.328533 14.916267 17.442134 14.916266h141.585066c9.216 0 17.339733-7.236267 17.408-14.916266v-58.504534c-0.068267-7.748267-8.192-15.018667-17.408-15.018666H235.3152z m229.137067 0c-8.704 0.648533-16.110933 7.748267-16.213334 15.018667v58.4704c0 7.68 8.669867 14.916267 17.954134 14.916266h141.073066c9.216 0 17.8176-7.236267 17.8176-14.916266v-58.504534c0-7.748267-8.635733-15.018667-17.8176-15.018666h-142.779733z m229.2736 0c-8.533333 0.8192-15.803733 7.816533-15.803734 15.018667v58.4704c0 7.68 8.635733 14.916267 17.8176 14.916266h140.834134c9.216 0.170667 18.090667-7.168 18.261333-14.916266v-58.504534c-0.170667-7.748267-8.977067-15.086933-18.261333-15.018666h-142.882134z m229.649066 0c-8.533333 0.8192-15.906133 7.816533-15.906133 15.018667v58.4704c0.170667 7.68 8.328533 14.916267 17.6128 14.916266h141.073067c9.1136 0 17.373867-7.236267 17.5104-14.916266v-58.504534c-0.068267-7.748267-8.3968-15.018667-17.5104-15.018666h-142.779734z" fill="#000000" p-id="75833"></path></svg>