<?xml version="1.0" standalone="no"?><!DOCTYPE svg PUBLIC "-//W3C//DTD SVG 1.1//EN" "http://www.w3.org/Graphics/SVG/1.1/DTD/svg11.dtd"><svg t="1620451307648" class="icon" viewBox="0 0 1024 1024" version="1.1" xmlns="http://www.w3.org/2000/svg" p-id="3404" xmlns:xlink="http://www.w3.org/1999/xlink" width="200" height="200"><defs><style type="text/css"></style></defs><path d="M1023.68 36.54C1026.46 16.98 1011.14 0 992.08 0c-1.52 0-3.06 0.1-4.62 0.32L800 32 297.02 534.98l-77.64-77.64c-12.44-12.44-32.62-12.46-45.08 0L136.86 494.8c-10.74 10.74-12.42 27.58-3.98 40.22l106.38 159.58-106.46 106.44-58.3-29.14c-2.42-1.22-18.5-8.28-31.94 5.18L8.1 811.52c-10.8 10.82-10.8 28.34 0 39.14l165.24 165.24c5.4 5.4 12.48 8.1 19.56 8.1s14.16-2.7 19.58-8.1l34.46-34.46a27.68 27.68 0 0 0 5.18-31.94l-29.14-58.3 106.44-106.46 159.58 106.38c12.64 8.42 29.48 6.76 40.22-3.98l37.46-37.44c12.44-12.44 12.44-32.64 0-45.08l-77.64-77.64L992 224l31.68-187.46z m-121.24 141.24L421.14 659.1l-56.24-56.24L846.22 121.54l67.66-11.44-11.44 67.68z" p-id="3405"></path></svg>