<?xml version="1.0" standalone="no"?><!DOCTYPE svg PUBLIC "-//W3C//DTD SVG 1.1//EN" "http://www.w3.org/Graphics/SVG/1.1/DTD/svg11.dtd"><svg t="1619943670529" class="icon" viewBox="0 0 1024 1024" version="1.1" xmlns="http://www.w3.org/2000/svg" p-id="2032" xmlns:xlink="http://www.w3.org/1999/xlink" width="200" height="200"><defs><style type="text/css"></style></defs><path d="M512.252875 933.868059c-232.35617 0-420.784308-188.428138-420.784308-420.784308 0-232.464545 188.428138-420.784308 420.784308-420.784308 232.464545 0 420.784308 188.319763 420.784308 420.784308 0 232.392295-188.319763 420.784308-420.784308 420.784308z m28.105271-784.093699V288.638961c0 15.461511-12.643759 28.033021-28.105271 28.033021-15.497636 0-28.033021-12.535384-28.03302-28.033021V149.77436c-178.999506 13.691385-321.584986 156.312989-335.312496 335.20412h138.972977c15.461511 0 28.033021 12.643759 28.03302 28.105271 0 15.497636-12.535384 28.033021-28.03302 28.03302H148.907359c13.691385 178.999506 156.312989 321.584986 335.312496 335.204121v-138.864602a28.033021 28.033021 0 0 1 28.03302-28.03302c15.461511 0 28.105271 12.535384 28.105271 28.03302v138.864602c178.891131-13.619135 321.584986-156.204614 335.20412-335.204121h-138.864601c-15.497636 0-28.033021-12.535384-28.033021-28.03302 0-15.461511 12.535384-28.105271 28.033021-28.105271h138.864601c-13.619135-178.891131-156.312989-321.512735-335.20412-335.20412z" fill="#231815" p-id="2033"></path></svg>