<?xml version="1.0" standalone="no"?><!DOCTYPE svg PUBLIC "-//W3C//DTD SVG 1.1//EN" "http://www.w3.org/Graphics/SVG/1.1/DTD/svg11.dtd"><svg t="1619944422051" class="icon" viewBox="0 0 1024 1024" version="1.1" xmlns="http://www.w3.org/2000/svg" p-id="75064" xmlns:xlink="http://www.w3.org/1999/xlink" width="200" height="200"><defs><style type="text/css"></style></defs><path d="M748.193397 746.506988l0-356.632443 62.056358 0L810.249755 89.26914 652.9328 89.26914 652.9328 192.579063l-57.444317 0L595.488483 89.26914 428.737668 89.26914 428.737668 192.579063l-57.444317 0L371.293351 89.26914 213.977419 89.26914l0 300.605406 62.056358 0 0 356.632443-80.30907 0 0 194.152908 632.778784 0L828.503491 746.506988 748.193397 746.506988zM262.653025 138.348951l59.965743 0 0 103.309924 154.794505 0L477.413274 138.348951l69.400626 0 0 103.309924 154.794505 0L701.608406 138.348951l59.965743 0 0 202.387453L262.653025 340.736405 262.653025 138.348951zM324.709383 739.507574 324.709383 393.375276l374.784872 0 0 346.08318L324.709383 739.458455 324.709383 739.507574zM779.826861 891.558595 244.399289 891.558595l0-95.949282 535.427572 0L779.826861 891.558595z" p-id="75065"></path></svg>