<?xml version="1.0" standalone="no"?><!DOCTYPE svg PUBLIC "-//W3C//DTD SVG 1.1//EN" "http://www.w3.org/Graphics/SVG/1.1/DTD/svg11.dtd"><svg t="1619943650137" class="icon" viewBox="0 0 1024 1024" version="1.1" xmlns="http://www.w3.org/2000/svg" p-id="1756" xmlns:xlink="http://www.w3.org/1999/xlink" width="200" height="200"><defs><style type="text/css"></style></defs><path d="M853.778875 961.214704H180.516757c-61.990545 0-112.168207-50.249912-112.168207-112.168207V175.784379c0-61.990545 50.177662-112.276582 112.168207-112.276582h673.262118c61.990545 0 112.168207 50.249912 112.168207 112.276582v673.262118c0.036125 61.918295-50.141537 112.168207-112.168207 112.168207z m56.138291-785.430325c0-31.031398-25.179143-56.138291-56.138291-56.138291H180.516757c-30.959148 0-56.138291 25.106893-56.138291 56.138291v673.262118c0 30.959148 25.179143 56.066041 56.138291 56.066041h673.262118c30.959148 0 56.138291-25.106893 56.138291-56.066041V175.784379z m-249.082057 323.571862l-115.63621-115.56396v296.947718a28.033021 28.033021 0 0 1-28.03302 28.03302c-15.497636 0-28.033021-12.535384-28.033021-28.03302v-296.947718l-115.636209 115.56396a28.061921 28.061921 0 0 1-39.665279 0c-10.945883-10.945883-10.945883-28.719396 0-39.701404l158.697241-158.697242c6.68313-6.68313 15.931137-8.814506 24.637268-7.18888 8.706131-1.589501 17.881888 0.541875 24.637268 7.18888l158.697241 158.697242c10.945883 10.945883 10.945883 28.719396 0 39.701404a28.061921 28.061921 0 0 1-39.665279 0z" fill="#231815" p-id="1757"></path></svg>