<?xml version="1.0" standalone="no"?><!DOCTYPE svg PUBLIC "-//W3C//DTD SVG 1.1//EN" "http://www.w3.org/Graphics/SVG/1.1/DTD/svg11.dtd"><svg t="1619944357872" class="icon" viewBox="0 0 1024 1024" version="1.1" xmlns="http://www.w3.org/2000/svg" p-id="2928" xmlns:xlink="http://www.w3.org/1999/xlink" width="200" height="200"><defs><style type="text/css"></style></defs><path d="M512 960C264.97 960 64 759.03 64 512S264.97 64 512 64s448 200.97 448 448-200.97 448-448 448z m0-843.29c-217.97 0-395.29 177.33-395.29 395.29S294.03 907.29 512 907.29 907.29 729.97 907.29 512 729.97 116.71 512 116.71z" fill="#333333" p-id="2929"></path><path d="M597.92 769.22c-45.76 0-88.77-17.82-121.12-50.18-32.36-32.35-50.18-75.37-50.18-121.12 0-45.76 17.82-88.77 50.18-121.12 32.35-32.36 75.37-50.17 121.12-50.17s88.77 17.82 121.12 50.17c32.36 32.35 50.17 75.37 50.17 121.12s-17.82 88.77-50.17 121.12c-32.35 32.36-75.37 50.18-121.12 50.18z m0-289.88c-31.67 0-61.46 12.33-83.86 34.73s-34.74 52.18-34.74 83.86 12.34 61.46 34.74 83.85c22.4 22.4 52.18 34.74 83.86 34.74s61.46-12.34 83.85-34.74c22.4-22.4 34.73-52.18 34.73-83.85s-12.33-61.46-34.73-83.86c-22.39-22.4-52.17-34.73-83.85-34.73z" fill="#333333" p-id="2930"></path><path d="M495.43 521.79c-6.74 0-13.49-2.57-18.63-7.72L271.82 309.09c-10.29-10.29-10.29-26.98 0-37.26 5.12-5.13 11.84-7.7 18.56-7.72h0.08c6.74 0 13.49 2.57 18.63 7.72L514.07 476.8c10.29 10.29 10.29 26.98 0 37.26a26.289 26.289 0 0 1-5.35 4.14 26.207 26.207 0 0 1-10.53 3.44c-0.92 0.1-1.84 0.15-2.76 0.15z" fill="#333333" p-id="2931"></path><path d="M281.14 512.47c-6.74 0-13.49-2.57-18.63-7.72-5.15-5.14-7.72-11.89-7.72-18.63s2.57-13.49 7.72-18.63L467.48 262.5c10.28-10.29 26.98-10.29 37.26 0 5.15 5.14 7.72 11.89 7.72 18.63s-2.57 13.49-7.72 18.63L299.77 504.75c-5.14 5.15-11.89 7.72-18.63 7.72z" fill="#333333" p-id="2932"></path></svg>